<?xml version="1.0" encoding="utf-8"?>
<!-- Generator: Adobe Illustrator 22.1.0, SVG Export Plug-In . SVG Version: 6.00 Build 0)  -->
<svg version="1.1" id="图层_1" xmlns="http://www.w3.org/2000/svg" xmlns:xlink="http://www.w3.org/1999/xlink" x="0px" y="0px"
	 viewBox="0 0 490.7 128.7" style="enable-background:new 0 0 490.7 128.7;" xml:space="preserve">
<style type="text/css">
	.st0{fill:#EB5A23;}
	.st1{fill:#EA5B23;}
	.st2{fill:#E85B26;}
	.st3{font-family:'MicrosoftYaHeiUI-Bold';}
	.st4{font-size:29.3983px;}
	.st5{font-family:'Arial-BoldMT';}
	.st6{font-size:26.7603px;}
</style>
<path class="st0" d="M256,42.1c-1.1,0-1.8-0.2-2.1-0.3l-2.4-1.1l7.2-3.4c1.9-0.9,3-1.9,3.2-3c0.3-1.1,0.5-2.4,0.5-3.8v-6.1h3.7v-6
	h-3.7v-2.9h-7.5v2.9h-25v-2.6h-7.5v2.6h-4v6h4v9.3c0,1.1,0.2,2,0.7,2.8c0.5,0.7,1.5,1.4,3,2l7.1,2.7l-3,0.8c-1,0.3-1.8,0.5-2.4,0.6
	c-0.6,0.1-2.4,0.1-5.5,0.1h-4v5.9h7.9c2.4,0,4.1-0.1,5-0.3c0.9-0.2,1.8-0.4,2.4-0.7l7.9-2.8l7.8,2.8c1.3,0.5,2.4,0.8,3,0.9
	c0.7,0.1,2.1,0.1,4.2,0.1h9.7v-5.9h-6.4L256,42.1L256,42.1z M242.3,37.3l-9.8-3.2c-1.2-0.4-1.8-0.8-2.2-1.3
	c-0.3-0.5-0.5-1.6-0.5-3.3v-5.2h25v5.2c0,1.1-0.1,1.8-0.4,2.4c-0.3,0.5-1.2,1.1-2.8,1.7L242.3,37.3L242.3,37.3z M225.7,9.2h33v4h7.5
	V3.5h-19.3l-1.2-1.7h-6.7l-1.5,1.7h-19.1v9.7h7.4C225.7,13.3,225.7,9.2,225.7,9.2z M298.8,11.5h-14.1V27h14.1v13.5h6.7V27h8.6
	c1,0,2.1-0.2,3.3-0.6c1.2-0.4,2-1.2,2.4-2.4c0.4-1.3,0.6-2.3,0.6-3v-9.5h-15V9.2h15V3.8h-15v-2h-6.6v2h-14.9v5.4h14.9L298.8,11.5
	L298.8,11.5z M298.8,21.6h-7.7v-5h7.7C298.8,16.6,298.8,21.6,298.8,21.6z M305.4,16.8h8.2v3.3c0,0.5-0.1,0.9-0.4,1.2
	c-0.3,0.2-0.8,0.4-1.6,0.4h-6.2L305.4,16.8L305.4,16.8z M281.5,1.8h-6.8v7.6h6.8C281.5,9.4,281.5,1.8,281.5,1.8z M285.1,42.5
	c-0.6-0.1-1.2-0.5-2.1-1.1c-0.8-0.6-1.2-1.8-1.2-3.5V11.7h-8.8v5.7h2.3v23.9c0,0.5-0.2,1-0.5,1.4c-0.3,0.4-0.7,0.6-1.2,0.6h-0.6v5.2
	h2.6c0.9,0,1.6-0.1,2.1-0.3c0.6-0.2,1-0.6,1.3-1.2s0.6-1.2,0.9-1.8l0.9,1.1c0.1,0.2,0.7,0.6,1.8,1.1s2.4,0.7,4,0.7h33.8v-5.6h-32.4
	C286.7,42.7,285.7,42.6,285.1,42.5L285.1,42.5z M317.9,35c-0.3-0.2-0.6-0.8-1-1.7l-1.8-4.7h-6.5l3,8.3c0.4,1.2,0.9,2.1,1.4,2.6
	c0.5,0.6,1.1,0.8,1.6,0.9s1.9,0.1,4.1,0.1h2v-5.2h-1.5C318.6,35.3,318.2,35.1,317.9,35L317.9,35z M287.3,34.7
	c-0.4,0.4-0.9,0.5-1.4,0.5H284v5.3h4.1c2,0,3.4-0.6,4.2-1.8c0.8-1.2,1.3-2.2,1.7-3l2.5-7.2H290l-1.4,3.8
	C288.1,33.6,287.7,34.4,287.3,34.7L287.3,34.7z M338.9,41.9c-0.7-0.7-1.2-1.5-1.3-2.2c-0.2-0.7-0.3-1.5-0.3-2.3V11.6h-8.9V18h2.2
	v22.4c0,1.2-0.1,2-0.2,2.2s-0.4,0.3-0.8,0.3h-1.2v5.4h3.2c1.4,0,2.5-0.3,3.1-0.8c0.6-0.6,1.2-1.1,1.6-1.7l2.3,1.6
	c0.6,0.6,1.8,0.8,3.5,0.8h33.1V43H343C341,43,339.6,42.6,338.9,41.9L338.9,41.9z M337.1,1.9h-7.8v7.7h7.8V1.9z M339.8,7.3h26
	l-3.6,4.3l-7.9,0l-3.4-2.2h-8.3l2.4,2.2h-5.1v28.8h6.4v-7.7h8v7.7h6.6v-7.7h7.7v1.2c0,0.5-0.1,0.8-0.4,1c-0.2,0.2-0.6,0.3-1.2,0.3
	h-3.5v5.2h6c1.6,0,2.7-0.4,3.5-1.2c0.8-0.8,1.3-1.7,1.6-2.5c0.3-0.8,0.5-2,0.5-3.6V11.6h-4.6l4.6-5.4V2.2h-35.3L339.8,7.3z
	 M354.2,27.6h-8v-2.9h8V27.6z M354.2,19.7h-8v-3h8V19.7z M368.5,27.6h-7.7v-2.9h7.7V27.6z M368.5,19.7h-7.7v-3h7.7V19.7z M412.4,1.7
	H406l-1.3,4.9c-0.3,1.2-0.7,1.8-1.2,1.8h-0.8v5.7h2.4c1,0,1.9-0.2,2.5-0.6c0.6-0.4,1.2-1,1.6-1.9l1-2.3h13.9v30
	c0,1.5-0.1,2.5-0.4,2.9c-0.2,0.4-0.8,0.6-1.8,0.6h-1.9v5.7h3.4c2,0,3.6-0.2,4.6-0.7c1.1-0.5,1.8-1.3,2.1-2.5
	c0.4-1.2,0.6-2.8,0.6-4.9V3.8h-18.5L412.4,1.7L412.4,1.7z M407.1,14.1l-3.2,25.2c-0.3,1.9-0.6,2.9-0.8,3.1c-0.3,0.2-0.6,0.2-1.1,0.2
	h-1.8v5.7h4.2c1,0,1.9-0.1,2.7-0.5c0.8-0.3,1.3-0.8,1.7-1.6c0.4-0.8,0.7-2.2,1-4.2l4-27.9C413.7,14.1,407.1,14.1,407.1,14.1z
	 M417.1,13.8l-3.2,25.2c-0.2,1.9-0.5,2.9-0.8,3.1c-0.3,0.2-0.7,0.2-1.1,0.2h-1.8v5.7h4.2c1,0,1.9-0.2,2.7-0.5
	c0.8-0.3,1.3-0.9,1.7-1.6c0.4-0.8,0.7-2.2,1-4.2l4-27.9L417.1,13.8z M401.7,18.6h-3v-5.4h3.1V7.4h-3.1V2H392v5.4h-1.8V3.8h-5.9v5.3
	c0,1.5-0.1,2.3-0.3,2.5c-0.2,0.2-0.4,0.3-0.6,0.3h-0.7v4.9h2.6c0.7,0,1.5-0.2,2.4-0.6c0.8-0.4,1.4-1.2,1.8-2.2l0.3-0.9h2.5v6.5
	l-6.5,11.2c-0.6,1-1,1.6-1.3,1.8c-0.2,0.2-0.6,0.2-0.8,0.2h-0.6v5.5h1.8c1.1,0,2-0.2,2.7-0.7c0.7-0.5,1.4-1.2,2.2-2.4l2.5-4.1v7.8
	c0,1.9-0.2,3.1-0.6,3.4s-0.9,0.5-1.7,0.5h-4.7v5.6h7c2.7,0,4.5-0.6,5.3-1.8c0.8-1.2,1.2-2.5,1.2-4.1V24.2h3
	C401.7,24.2,401.7,18.6,401.7,18.6z M440.8,13.1c0.6,0.8,1.4,1.2,2.3,1.4c0.9,0.2,1.8,0.2,2.9,0.2h6.3V9.1h-5.3c-1,0-1.6-0.6-1.8-2
	l-0.7-5.2h-6.2l1.1,6.9C439.6,10.9,440.1,12.3,440.8,13.1z M484.9,42.7c-1,0-1.4-0.5-1.4-1.6V30.5h-6.3v11.6c0,1.2,0.1,2.1,0.3,2.8
	s0.8,1.5,1.7,2.2c0.9,0.7,2.7,1.1,5.4,1.1h1v-5.6H484.9z M466.5,48.4h6.3V30.6h-6.3V48.4z M443.7,40.3c-0.2,1-0.4,1.6-0.7,1.8
	s-0.7,0.3-1.3,0.3H438v5.9h4.3c1.2,0,2.3,0,3-0.2c0.8-0.1,1.5-0.4,2.1-0.9c0.6-0.5,1.1-1.1,1.4-1.9c0.3-0.8,0.5-1.6,0.7-2.4l1.7-10
	h-6.4L443.7,40.3z M483.2,25.4c0.1-0.7,0.1-1.7,0.1-2.8v-8.8h-6.7v7.6c0,0.8-0.1,1.3-0.4,1.6c-0.3,0.2-0.8,0.4-1.5,0.4l-13.1,0
	l7.6-13.3h15.9V4.4h-11.6L472.2,2h-6.5l-1.4,2.4h-11.1V10h7.9l-7.4,13.5v5.4H476c3.2,0,5.1-0.4,5.9-1.2
	C482.6,26.8,483.1,26.1,483.2,25.4z M445.6,24.2c-0.3-0.3-0.5-0.7-0.6-1.4l-1-5.4h-6.2l1.5,7.2c0.3,1.4,0.5,2.4,0.7,3.1
	c0.2,0.6,0.6,1.3,1.2,1.9c0.6,0.6,1.9,0.9,3.9,0.9h6.4v-5.8h-4.9C446.3,24.6,445.9,24.4,445.6,24.2z M455.6,41.1
	c0,0.7-0.1,1.2-0.3,1.5c-0.2,0.2-0.8,0.4-1.8,0.4h-1.8v5.4h3.5c2.5,0,4.2-0.4,4.9-1.2c0.7-0.8,1.2-1.7,1.4-2.6s0.3-1.8,0.3-2.7V30.7
	h-6.3L455.6,41.1L455.6,41.1z"/>
<path class="st1" d="M47.2,111.6h55.6v1.8H47.2V111.6z M384,111.6h55.6v1.8H384V111.6z"/>
<g>
	<text transform="matrix(1 0 0 1 139.3572 122.2868)" class="st2 st3 st4">责任  效率  精准</text>
</g>
<g>
	<text transform="matrix(1.0646 0 0 1 217.0231 74.7712)" class="st0 st5 st6">ANSUTOLOGISTICS</text>
</g>
<g>
	<g>
		<polygon class="st0" points="28.5,75.2 44.5,75.2 43.3,46.2 		"/>
		<g>
			<path class="st0" d="M207.2,3.9h-91.5c-7.2,0-17.8,2.3-25.8,8.3c-0.7,0.5-1.4,1-2,1.6c-1.7,1.7-4.4,4.3-7.1,8.7
				c-3.9,6.6-3.2,8.1-3.9,10.2c-0.1,1-0.2,1.9-0.2,3v7.8l0,0v1.6c0,0.2,0.1,0.4,0.4,0.4h49.7c0,1.2-0.2,5.4-1.9,7.7
				c-1.4,2.6-5.5,6.6-12,10.2c-3.9,1.5-8.6,2.3-14,2.3H71.5V12.8v-0.6V4.3c0-0.2-0.1-0.3-0.4-0.4H41.6c-1.8,0-3.5,0.3-5.1,0.9
				c-2.6,0.9-5.5,1.6-10.8,7.4c-1.1,1.3-2.1,2.8-2.9,4.5L2.9,73.6c-0.3,1.1-0.7,2.1-1,3.2H24l1.1-3.2C26.2,71,47.5,6.8,50.7,13.2
				l-1,63.5h20.7h1.1h34.8c5.1,0,10.1-0.6,15-2c1.1-0.4,2.1-0.7,3.2-1.2c3.5-1.2,11.4-6.8,14.2-9.6l0,0c3.1-3.2,5.4-8.5,6.1-10.8
				c1.1-2.1,1.7-7.9,1.8-10.2h-0.1v-8.4c0-0.2,0-0.4-0.3-0.4H96.7V34c0-0.4,0-0.8,0.1-1.3c0.5-1.1,2.1-5.8,2.6-6.7
				c0.9-1.2,1.9-2.4,3-3.5c6.7-6.7,14.6-7.6,20.9-7.6h38.3v61.9h21.8V14.8h23.8c0.2,0,0.4-0.1,0.4-0.4v-1.7v-0.6V4.3
				C207.6,4.1,207.5,3.9,207.2,3.9z"/>
		</g>
	</g>
</g>
</svg>
