<?xml version="1.0" encoding="utf-8"?>
<!-- Generator: Adobe Illustrator 22.1.0, SVG Export Plug-In . SVG Version: 6.00 Build 0)  -->
<svg version="1.1" id="图层_1" xmlns="http://www.w3.org/2000/svg" xmlns:xlink="http://www.w3.org/1999/xlink" x="0px" y="0px"
	 viewBox="0 0 1060.4 283" style="enable-background:new 0 0 1060.4 283;" xml:space="preserve">
<style type="text/css">
	.st0{fill:#040000;}
	.st1{fill:#663F95;}
	.st2{fill:#C04900;}
</style>
<path class="st0" d="M555,113c-2.3-0.1-3.8-0.4-4.5-0.7l-5.3-2.4l15.6-7.4c4.1-1.9,6.4-4.1,7-6.5c0.6-2.4,1-5.1,1-8.3V74.4h8.1V61.3
	h-8.1V55h-16.3v6.3h-54.2v-5.7H482v5.7h-8.6v13.1h8.6v20.1c0,2.4,0.5,4.4,1.6,6c1.1,1.6,3.3,3,6.6,4.3l15.3,5.9l-6.5,1.7
	c-2.2,0.6-3.9,1-5.2,1.2c-1.3,0.2-5.2,0.2-11.9,0.2h-8.6v12.7h17.1c5.2,0,8.8-0.2,10.9-0.6c2-0.4,3.8-0.9,5.3-1.5l17.1-6.1l16.9,6.1
	c2.9,1.1,5.1,1.7,6.6,1.9c1.5,0.2,4.6,0.3,9.2,0.3h21v-12.7h-13.8L555,113L555,113z M525.4,102.6l-21.3-7c-2.5-0.8-4-1.7-4.7-2.8
	c-0.7-1.1-1-3.5-1-7.2V74.4h54.2v11.3c0,2.3-0.3,4-0.9,5.1c-0.6,1.1-2.7,2.3-6.1,3.7L525.4,102.6L525.4,102.6z M489.4,41.9h71.4v8.7
	H577V29.5h-41.8l-2.6-3.7h-14.5l-3.3,3.7h-41.4v21.1h16L489.4,41.9L489.4,41.9z M647.7,46.8h-30.6v33.6h30.6v29.3h14.5V80.4h18.6
	c2.2,0,4.6-0.4,7.2-1.2c2.6-0.8,4.3-2.6,5.1-5.3c0.8-2.8,1.2-4.9,1.2-6.5V46.8h-32.4v-5h32.4V30.1h-32.4v-4.4h-14.2v4.4h-32.3v11.7
	h32.3C647.7,41.8,647.7,46.8,647.7,46.8z M647.7,68.7h-16.6V57.8h16.6C647.7,57.8,647.7,68.7,647.7,68.7z M662.1,58.3h17.7v7.1
	c0,1.1-0.3,1.9-0.9,2.5c-0.6,0.5-1.7,0.8-3.4,0.8h-13.5L662.1,58.3L662.1,58.3z M610.4,25.8h-14.7v16.5h14.7
	C610.4,42.2,610.4,25.8,610.4,25.8z M618.1,114c-1.2-0.2-2.7-1-4.5-2.4c-1.7-1.4-2.6-3.9-2.6-7.5V47.3h-19v12.3h4.9v51.7
	c0,1.1-0.4,2.2-1,3.1c-0.7,0.9-1.6,1.4-2.6,1.4H592V127h5.6c1.9,0,3.4-0.2,4.6-0.7c1.2-0.5,2.1-1.3,2.9-2.5c0.8-1.2,1.4-2.5,2-3.8
	l2,2.4c0.3,0.5,1.6,1.3,3.8,2.4c2.2,1.1,5.1,1.6,8.6,1.6h73.3v-12.1h-70.3C621.5,114.3,619.3,114.2,618.1,114L618.1,114z
	 M689.1,97.6c-0.7-0.5-1.4-1.7-2.1-3.7l-4-10.1h-14l6.5,17.9c0.9,2.6,1.9,4.5,3,5.6c1.1,1.2,2.3,1.8,3.5,2c1.2,0.2,4.2,0.2,8.8,0.2
	h4.4V98.3H692C690.7,98.3,689.8,98,689.1,97.6L689.1,97.6z M622.9,97.1c-0.9,0.8-1.9,1.1-3,1.1h-4.2v11.4h8.8c4.3,0,7.3-1.3,9.1-4
	c1.8-2.7,2.9-4.8,3.6-6.5l5.5-15.5h-13.9l-3,8.3C624.7,94.7,623.8,96.4,622.9,97.1L622.9,97.1z M734.6,112.6
	c-1.5-1.6-2.5-3.2-2.9-4.8c-0.5-1.6-0.7-3.2-0.7-4.9V47h-19.3v13.8h4.7v48.5c0,2.7-0.2,4.3-0.5,4.8c-0.3,0.5-0.9,0.7-1.8,0.7h-2.7
	v11.8h6.9c3.1,0,5.4-0.6,6.7-1.8c1.3-1.2,2.5-2.4,3.5-3.6l4.9,3.4c1.4,1.2,4,1.7,7.6,1.7h71.7V115h-69.1
	C739.1,115,736.1,114.2,734.6,112.6L734.6,112.6z M730.8,26H714v16.7h16.8C730.8,42.7,730.8,26,730.8,26z M736.6,37.7h56.3l-7.8,9.3
	l-17.2-0.1l-7.3-4.7h-18l5.1,4.8h-11v62.4h13.9V92.7h17.4v16.7h14.3V92.7h16.6v2.6c0,1-0.3,1.8-0.8,2.2c-0.5,0.4-1.4,0.6-2.5,0.6
	h-7.6v11.3h12.9c3.4,0,5.9-0.9,7.6-2.7c1.7-1.8,2.9-3.6,3.5-5.4c0.7-1.8,1-4.4,1-7.8V47H803l9.9-11.6v-8.8h-76.4L736.6,37.7
	L736.6,37.7z M767.9,81.7h-17.4v-6.2h17.4V81.7z M767.9,64.5h-17.4v-6.4h17.4V64.5L767.9,64.5z M798.8,81.7h-16.6v-6.2h16.6V81.7z
	 M798.8,64.5h-16.6v-6.4h16.6V64.5L798.8,64.5z M894,25.6h-13.9l-2.9,10.6c-0.7,2.6-1.6,3.9-2.6,3.9h-1.8v12.4h5.3
	c2.2,0,4.1-0.4,5.5-1.2c1.4-0.8,2.6-2.2,3.5-4.2l2.1-5h30.2v64.9c0,3.3-0.3,5.4-0.8,6.2c-0.5,0.8-1.8,1.2-3.9,1.2h-4.2v12.3h7.3
	c4.4,0,7.7-0.5,9.9-1.6c2.3-1.1,3.8-2.8,4.6-5.4c0.8-2.5,1.2-6.1,1.2-10.7V30.1h-40L894,25.6L894,25.6z M882.4,52.4l-7,54.7
	c-0.6,4.1-1.2,6.3-1.8,6.7c-0.6,0.4-1.4,0.5-2.4,0.5h-4v12.3h9.2c2.2,0,4.2-0.3,5.9-1c1.7-0.7,2.9-1.8,3.7-3.5
	c0.8-1.7,1.5-4.7,2.1-9.2l8.6-60.5L882.4,52.4L882.4,52.4z M904.1,51.8l-7,54.7c-0.5,4.1-1.1,6.3-1.8,6.7c-0.7,0.4-1.5,0.5-2.3,0.5
	h-4V126h9.1c2.2,0,4.1-0.4,5.8-1.1c1.7-0.7,2.9-1.9,3.7-3.5c0.8-1.7,1.5-4.7,2.1-9.2l8.6-60.5L904.1,51.8L904.1,51.8z M870.7,62.1
	h-6.4V50.4h6.8V38h-6.8V26.3h-14.5V38h-4v-7.9h-12.7v11.4c0,3.2-0.2,5-0.6,5.5c-0.4,0.5-0.9,0.7-1.4,0.7h-1.6v10.7h5.7
	c1.6,0,3.3-0.4,5.1-1.3c1.8-0.9,3.1-2.5,3.9-4.8l0.6-2h5.5v14l-14,24.2c-1.3,2.2-2.2,3.5-2.8,3.8c-0.5,0.4-1.2,0.5-1.8,0.5h-1.3v12
	h3.9c2.3,0,4.3-0.5,5.9-1.5c1.6-1,3.1-2.7,4.7-5.1l5.5-8.8v16.8c0,4.2-0.4,6.7-1.2,7.4c-0.8,0.7-2,1.1-3.7,1.1h-10.2v12.2h15.1
	c5.9,0,9.7-1.3,11.4-3.8c1.7-2.5,2.6-5.5,2.6-8.9v-40h6.4L870.7,62.1L870.7,62.1z M955.4,50.3c1.4,1.7,3,2.7,4.9,3.1
	c1.9,0.4,3.9,0.5,6.2,0.5h13.6V41.5h-11.4c-2.2,0-3.4-1.4-3.8-4.3L963.4,26H950l2.3,14.9C952.9,45.5,954,48.6,955.4,50.3L955.4,50.3
	z M1050.9,114.3c-2.1,0-3.1-1.1-3.1-3.4V88h-13.6v25.1c0,2.5,0.2,4.5,0.7,6.1c0.5,1.6,1.7,3.2,3.6,4.8c1.9,1.6,5.8,2.4,11.6,2.4h2.1
	v-12.1L1050.9,114.3L1050.9,114.3z M1011.1,126.8h13.6V88.2h-13.6V126.8L1011.1,126.8z M961.7,109.1c-0.4,2.2-0.9,3.5-1.5,4
	c-0.6,0.5-1.6,0.7-2.9,0.7h-8v12.7h9.3c2.7,0,4.9-0.1,6.6-0.4c1.7-0.2,3.3-0.9,4.6-2c1.4-1.1,2.4-2.4,3-4.1c0.6-1.7,1.1-3.5,1.5-5.3
	l3.7-21.7h-13.9L961.7,109.1L961.7,109.1z M1047.2,76.8c0.2-1.6,0.3-3.6,0.3-6.1V51.6h-14.5v16.5c0,1.8-0.3,2.9-0.8,3.5
	c-0.6,0.5-1.7,0.8-3.3,0.8l-28.4-0.1l16.4-28.8h34.4v-12h-25.2l-2.6-5.3h-14l-3.1,5.3h-24v12h17.1l-16,29.2v11.7h48.3
	c6.9,0,11.1-0.9,12.7-2.6C1046.1,80,1047,78.4,1047.2,76.8L1047.2,76.8z M965.9,74.2c-0.6-0.6-1-1.6-1.2-3.1l-2.1-11.8h-13.4
	l3.2,15.6c0.6,3.1,1.1,5.3,1.6,6.7c0.5,1.4,1.3,2.8,2.7,4.1c1.3,1.3,4.1,2,8.5,2H979V75.1h-10.7C967.3,75.1,966.5,74.8,965.9,74.2
	L965.9,74.2z M987.4,110.9c0,1.6-0.2,2.7-0.6,3.2c-0.4,0.5-1.7,0.8-3.8,0.8h-3.8v11.8h7.6c5.5,0,9.1-0.9,10.6-2.7
	c1.5-1.8,2.5-3.7,3-5.7c0.5-2,0.7-3.9,0.7-5.9V88.4h-13.6L987.4,110.9L987.4,110.9z M488.2,142.8L470.6,185h9.4l12.8-30.8l12.4,30.8
	l9.3,0L497,142.8L488.2,142.8L488.2,142.8z M552.8,171.2l-22.9-28.4h-7.6V185h8.8v-28.2l23.1,28.2h7.3v-42.2h-8.8L552.8,171.2
	L552.8,171.2z M599.1,163.7c-2.2-1.8-5.9-3.1-11.2-4c-3.9-0.8-6.2-1.7-7-2.9c-0.7-1.1-0.6-2.4,0.3-3.9c0.9-1.5,3.2-2.2,6.7-2.2
	c3.8,0.3,6.6,1.4,8.2,3.4l5.9-5.6c-2-1.9-4.1-3.3-6.3-4.2c-2.2-0.9-5.4-1.4-9.5-1.4c-3.5,0-6.9,1.1-10.3,3.4c-3.3,2.3-5,5.3-5,9
	c0,4.1,1.3,7,3.9,8.7c2.6,1.7,6,2.7,10.2,3.2c4.1,0.6,6.5,1.6,7.4,2.9c0.8,1.3,0.8,2.9-0.1,4.7c-0.9,1.8-3.2,2.7-7,2.8
	c-4.4-0.3-7.8-1.7-10.3-4.2l-5.9,5.6c2,1.9,4.3,3.4,7,4.5c2.7,1.1,6.1,1.7,10.2,1.7c4.3,0,8-1.1,11.1-3.3c3.1-2.2,4.8-5.2,5.1-9.1
	C602.5,168.5,601.4,165.5,599.1,163.7L599.1,163.7z M640.2,167.3c0,3.2-1,5.5-2.9,7c-2,1.5-4.4,2.3-7.3,2.3c-2.9,0-5.4-0.7-7.3-2.3
	c-2-1.5-2.9-3.8-2.9-7v-24.5h-8.8v26.7c0,4.3,1.8,8,5.4,11c3.6,3,8.2,4.5,13.6,4.5c5.5,0,10-1.5,13.6-4.5c3.6-3,5.4-6.7,5.4-11
	v-26.7h-8.8L640.2,167.3L640.2,167.3z M657.5,150.7h14.7V185h8.8v-34.3h14.7v-7.9h-38.1L657.5,150.7L657.5,150.7z M723.1,142.8
	c-6.2,0-11.5,2-15.7,6.1c-4.2,4-6.3,9.1-6.3,15.1c0,6,2.1,11,6.3,15c4.2,4,9.4,6.1,15.7,6.1c6.3,0,11.5-2,15.7-6.1
	c4.2-4,6.3-9.1,6.3-15.1c0-6-2.1-11-6.3-15.1C734.5,144.8,729.3,142.8,723.1,142.8L723.1,142.8z M732.6,173.3
	c-2.4,2.5-5.6,3.8-9.5,3.8c-3.9,0-7.1-1.3-9.6-3.8c-2.4-2.5-3.7-5.7-3.7-9.4s1.2-6.9,3.7-9.4c2.4-2.5,5.6-3.8,9.5-3.8
	c3.9,0,7.1,1.3,9.6,3.8c2.4,2.5,3.7,5.7,3.7,9.4S735,170.8,732.6,173.3L732.6,173.3z M783.2,171.2l-22.9-28.4h-7.6V185h8.8v-28.2
	l23.1,28.2h7.3v-42.2h-8.8V171.2L783.2,171.2z M821.9,151.2c3.9,0,7.3,1.1,10.3,3.4l5.9-6.2c-4.5-3.8-9.9-5.6-16.1-5.6
	c-6.2,0-11.4,2-15.6,6.1c-4.2,4-6.3,9-6.3,15c0,6.1,2.1,11.1,6.3,15.1c4.2,4,9.4,6,15.6,6.1c6.3,0,11.7-1.9,16.1-5.6v-19.7h-14.7
	v7.9l5.9,0v7.2c-1.7,1.2-4.1,1.8-7.3,1.8c-3.9,0-7.1-1.2-9.6-3.5c-2.4-2.3-3.6-5.4-3.7-9.3c0-3.7,1.2-6.7,3.6-9
	C814.8,152.4,818,151.2,821.9,151.2L821.9,151.2z M887.1,171.5l-7.6-28.7h-9.1l-7.9,28.7l-7.6-28.7h-9.4l11.8,42.2h8.8l8.8-31
	l8.8,31h8.8l11.7-42.2h-9.4L887.1,171.5z M940.5,167.3c0,3.2-1,5.5-2.9,7c-2,1.5-4.4,2.3-7.3,2.3c-2.9,0-5.4-0.7-7.3-2.3
	c-2-1.5-2.9-3.8-2.9-7v-24.5h-8.8v26.7c0,4.3,1.8,8,5.4,11c3.6,3,8.2,4.5,13.6,4.5c5.5,0,10-1.5,13.6-4.5c3.6-3,5.4-6.7,5.4-11
	v-26.7h-8.8L940.5,167.3L940.5,167.3z M968.8,142.8H960V185h32.2v-7.9h-23.4V142.8z M1000.7,185h8.8v-42.3h-8.8V185L1000.7,185z
	 M1048.1,142.8v24.5c0,3.2-1,5.5-2.9,7c-2,1.5-4.4,2.3-7.3,2.3c-2.9,0-5.4-0.7-7.3-2.3c-2-1.5-2.9-3.8-2.9-7v-24.5h-8.8v26.7
	c0,4.3,1.8,8,5.4,11c3.6,3,8.2,4.5,13.6,4.5c5.5,0,10-1.5,13.6-4.5c3.6-3,5.4-6.7,5.4-11v-26.7H1048.1z"/>
<path class="st1" d="M190.9,51.7c-3.6,3.6-6.8,7.2-9.6,10.8h51.6c9.6-5.6,21.1-8.5,34.7-8.5c9.2,0.3,17.5,0.4,25,0.4h24.2
	c0.4,0,0.6-0.1,0.7-0.4h33.1v8.5h47.2V54h51.6c0.5,0,0.8-0.3,0.8-0.8v-4.9H195.3C193.8,49.4,192.3,50.5,190.9,51.7L190.9,51.7z
	 M317.1,95.9H209.9v-0.4c0-0.9,0.1-1.8,0.3-2.8h-43.1c-0.3,2.1-0.5,4.2-0.5,6.4v7.8h151.2V96.7C317.9,96.2,317.7,95.9,317.1,95.9
	L317.1,95.9z M449.4,30.3H251.2c-15.5,0-29.8,3.3-42.9,10h241.9v-9.2C450.2,30.7,449.9,30.4,449.4,30.3z M108,106.8h47.2V92.6H108
	V106.8z M214.7,164.2h-47.2c-0.5,0-0.7,0.3-0.8,0.8v8.4h119c6.5-4.1,11.9-8.8,16.4-14.2h-57C236.6,162.5,226.5,164.2,214.7,164.2z
	 M166.7,119.5c0,0.5,0.3,0.8,0.8,0.8h107.6c0,2.5-0.4,5.4-1.2,8.7h42.5c0.9-4.5,1.4-9.2,1.6-14.2H166.7V119.5L166.7,119.5z
	 M215.9,78.1c2-2.7,4.1-5.3,6.5-7.6h-46.8c-2.9,4.8-5.2,9.5-6.7,14.2h43.8C213.7,82.4,214.8,80.2,215.9,78.1z M350.5,106.8h47.2
	V92.6h-47.2V106.8z M259.1,151.2h48.7c2.7-4.5,4.9-9.2,6.4-14.2H271C267.9,142.6,263.9,147.3,259.1,151.2z M350.5,84.7h47.2V70.5
	h-47.2V84.7z M350.5,151.2h47.2V137h-47.2V151.2z M350.5,129h47.2v-14.2h-47.2V129z M350.5,173.3h47.2v-14.2h-47.2V173.3z M108,84.7
	h47.2V70.5H108C108,70.5,108,84.7,108,84.7z M9.3,173.3h48.1l4.7-14.2h-48C12.3,164.6,10.6,169.3,9.3,173.3L9.3,173.3z M108,129
	h47.2v-14.2H108V129z M4.4,188.2h48l2.3-6.9H6.6C5.9,183.6,5.1,185.9,4.4,188.2z M166.7,187.4c0,0.5,0.3,0.8,0.8,0.8h63.1
	c11,0,21.8-1.4,32.6-4.3c2.3-0.8,4.6-1.6,6.9-2.6H166.7L166.7,187.4L166.7,187.4z M350.5,187.4c0,0.5,0.3,0.8,0.8,0.8H397
	c0.5,0,0.8-0.3,0.8-0.8v-6.1h-47.2L350.5,187.4L350.5,187.4z M108,187.4c0,0.5,0.3,0.8,0.8,0.8h45.7c0.5,0,0.8-0.3,0.8-0.8v-6.1H108
	V187.4z M24.6,129h47.5l4.7-14.2H29.6C27.8,119.8,26.2,124.5,24.6,129L24.6,129z M16.9,151.2h47.9l4.7-14.2H21.8
	C20,142.1,18.4,146.8,16.9,151.2L16.9,151.2z M154.5,30.3H90.6c-3.8,0-7.5,0.7-11.1,2c-5.7,1.9-10.8,4.5-15.3,8h91.1v-9.2
	C155.3,30.7,155,30.4,154.5,30.3z M32.4,106.8h47.1l4.7-14.2H37.4C35.7,97.6,34,102.3,32.4,106.8z M108,151.2h47.2V137H108V151.2z
	 M108,173.3h47.2v-14.2H108V173.3z M49.7,58l-1.6,4.5h46.3c2.5-5.6,6.7-8.5,12.5-8.5c0.8,0,1.2,0.3,1.2,0.8v7.7h47.2V48.3H56
	C53.7,51.2,51.5,54.4,49.7,58z M40.2,84.7h46.6l4.7-14.2H45.3C43.5,75.3,41.9,80.1,40.2,84.7z"/>
<image style="display:none;overflow:visible;" width="278" height="91" xlink:href="3EF6D885.jpg"  transform="matrix(4.0755 0 0 4.0755 -52 -307.7781)">
</image>
<g>
	<g>
		<path class="st2" d="M258.8,250.7c5.5,1.7,11.5,3.6,18,5.7l14.2-8.4h-35.2v-3.2l3-5.3h-15v-3.3h16.9l3.4-5.9h-16.4v-3.3H266
			l3.3-5.7h5.7l-3.3,5.7h29.7v3.3h-31.6l-3.4,5.9h39v3.3h-40.9l-3,5.3h36.6v3.4l-16.7,9.8c2.8,0.9,5.7,1.9,8.7,2.9L287,264
			c-10.5-3.8-20.8-7.3-30.8-10.4L258.8,250.7z"/>
		<path class="st2" d="M310.5,232.9c3,1.4,6.7,3.4,11.1,5.9c-1.5,1.2-2.8,2.1-3.7,2.8c-4.4-2.8-7.9-4.8-10.5-6.2L310.5,232.9z
			 M316.2,245.3c1.7,0.5,3.4,1,5,1.4c-2.3,5.1-4.7,10.6-7.2,16.5l-5.4-1.3C311.2,257.1,313.7,251.5,316.2,245.3z M312.9,221.8
			c4.1,2.1,7.7,4.2,10.9,6.3c-1.4,1-2.7,1.9-3.8,2.6c-2.3-1.6-5.7-3.8-10.3-6.5L312.9,221.8z M322.9,257.7H344v-12.2h-16.3v-3.3H344
			v-10.4h-18.1v-3.3h20c-2-2.1-4-4.1-6-5.9l4.1-1.8c2.8,2.2,5,4.2,6.7,5.9l-3.9,1.7h21.1v3.3h-18.6v10.4h16.3v3.3h-16.3v12.2h20.3
			v3.3h-46.7V257.7z"/>
		<path class="st2" d="M372.2,240.4h3.8v-14.5h6.5c0.5-1.8,1-3.4,1.5-5l4.6,0.6c-0.7,1.5-1.4,3-2.1,4.4h9.4v32.7
			c0,2.9-1.9,4.3-5.6,4.3c-2.4,0-4.4,0-6.1-0.1c-0.1-0.8-0.4-1.8-0.8-3c2.1,0.2,4.1,0.3,5.8,0.3c1.6,0,2.4-0.7,2.4-2v-14.8h-11.3
			v4.6c0,6.3-1.7,11.4-5.1,15.4c-0.9-0.8-2.1-1.6-3.5-2.4c2.9-3.2,4.3-7.6,4.3-13.3v-4.3h-3.8V240.4z M391.5,228.8h-11.3v11.6h11.3
			V228.8z M382.1,232.1l3.8-1c1,1.6,2.3,3.6,3.6,6.2l-3.9,1C384.6,236.1,383.4,234,382.1,232.1z M382.1,247.1l3.8-1
			c1.3,2.2,2.6,4.7,4,7.5l-3.9,1C384.8,252.1,383.6,249.5,382.1,247.1z M408.3,239.8c0,7.4-0.5,12.5-1.6,15.3
			c-1.1,3.3-3.1,6.1-6.2,8.5c-1.3-1.1-2.5-2.1-3.7-2.9c2.7-2,4.5-4.4,5.5-7.3c1-2.9,1.4-7.2,1.4-12.9v-3.8h19.8v20.6
			c0,1,0.7,1.5,2,1.5h1.2c1.3,0,1.9-0.8,2-2.3c0.2-1.5,0.4-4,0.6-7.4c1.5,0.5,3.2,1,5,1.4c-0.3,2.9-0.6,5.3-0.8,7.3
			c-0.4,3-2.4,4.4-5.8,4.4h-3.4c-3.5,0-5.2-1.4-5.2-4.2v-18.2H408.3z M398,227.9h34.3v3.2H398V227.9z M409,222.2l4.2-1.3
			c1.6,1.8,3.1,3.5,4.3,5.2l-4.3,1.4C412,225.6,410.6,223.8,409,222.2z"/>
		<path class="st2" d="M459.1,232.1l3.7,2.5c-8.1,4.4-15.8,7.9-22.9,10.7c-1.3-1.2-2.6-2.1-3.8-2.8
			C444.3,239.5,451.9,236.1,459.1,232.1z M438.5,258.1h26.1v-11.3h-19.6v-3.3h44.7v3.3h-19.7v11.3h26.2v3.3h-57.6V258.1z
			 M438.8,226.6h27.3c-1-1.2-2.2-2.7-3.6-4.2l4.6-1.5c1.7,1.7,3.2,3.4,4.5,5l-2.3,0.8h26.5v8.4h-5.1v-5.1H444v5.1h-5.1V226.6z
			 M475.2,232.1c8.8,3.6,16.4,7,22.9,10.2l-3.6,3c-6.3-3.4-13.8-6.9-22.3-10.6L475.2,232.1z"/>
		<path class="st2" d="M559.5,247.5l4.8,2.2c-7,5.6-14.1,10.2-21.3,13.9c-1.3-0.8-2.9-1.7-4.7-2.7
			C546.3,257.1,553.4,252.6,559.5,247.5z M546.7,224h46.2v23.4h-5.1v-2h-35.9v2h-5.1V224z M587.8,242.2v-15h-35.9v15H587.8z
			 M578.4,247.3c7.9,4.5,15.3,8.9,22.2,13.2c-0.3,0.2-1.9,1.2-4.8,3c-6.2-4.6-13.3-9.1-21.2-13.6L578.4,247.3z"/>
		<path class="st2" d="M605.3,232.4h23.6c0.6-3.5,0.9-7.3,0.9-11.4h5.4c0,4.3-0.3,8.1-0.9,11.4H661c-0.3,8.9-0.6,16.2-1.1,22
			c-0.4,5.4-4.6,8-12.4,8c-3.3,0-7.1-0.1-11.6-0.2c-0.2-1.1-0.5-2.5-0.9-4c3.9,0.4,7.8,0.6,11.6,0.6c5,0,7.7-1.7,7.9-5.1
			c0.6-5.6,1-11.6,1.1-17.9h-21.9c-3.1,12.7-11.7,22.1-25.8,28.2c-1.2-1-2.4-2.1-3.8-3.2c13-5.3,21.1-13.6,24.1-25.1h-22.8V232.4z
			 M609.8,223.9l3.4-2.2c3.5,2.1,6.8,4.2,10,6.4l-3.8,2.5C616.3,228.3,613.1,226,609.8,223.9z M635.1,243.5l3.5-2.1
			c4,2.6,7.7,5.1,10.9,7.5l-3.9,2.4C642.4,248.8,638.9,246.2,635.1,243.5z"/>
		<path class="st2" d="M667.1,260.7c7.7-0.9,13.8-2.2,18.5-4c-3.6-1.7-6.8-3.9-9.7-6.7l3.3-1.7h-4.9v-18h22c0-1.2,0-2.6,0.1-4h-27.1
			v-3H727v3h-25.7c0,1.4,0,2.7,0,4H722v20.1h-4.8v-2.1h-17.6c-1.1,3.4-2.8,6-5.2,7.9c8.4,2.1,20.1,3.1,35.1,3.1
			c-1,1.3-1.9,2.4-2.6,3.4c-16.6-0.3-28.8-1.7-36.6-4.2c-4.8,2.2-11.6,3.9-20.4,5.3C669.1,262.8,668.2,261.8,667.1,260.7z
			 M679.1,237.8h17.1c0-1.4,0.1-2.9,0.1-4.7h-17.2V237.8z M696.1,240.7h-17.1v4.6h16.5C695.9,243.9,696.1,242.4,696.1,240.7z
			 M689.8,254.7c2.3-1.3,3.9-3.5,5-6.4h-15.4C682.3,251,685.8,253.2,689.8,254.7z M700.4,245.4h16.9v-4.6H701
			C700.9,242.4,700.7,243.9,700.4,245.4z M717.2,233.2h-16.1c0,1.7-0.1,3.3-0.1,4.7h16.2V233.2z"/>
		<path class="st2" d="M733.9,231.5l4.2,0.4c-0.6,3.5-1.5,7.1-2.8,11c-1.2-0.2-2.6-0.4-4.2-0.7C732.1,239.3,733,235.7,733.9,231.5z
			 M740,221.5h4.7v9.5l2.4-1.1c2.7,2.1,5.1,4.1,7.1,6l-3.8,1.9c-1.8-2-3.8-3.8-5.8-5.5v31.3H740V221.5z M749.1,242.8h16.7
			c0.3-2.4,0.6-5.9,0.7-10.6h-13.1v-3.1h13.2c0-2.3,0-4.8,0-7.5h5c0,2.7,0,5.2-0.1,7.5h15.3v13.7h6.2v3.1h-20.3
			c3.4,6.5,10.1,11.3,20,14.3c-1.1,0.7-2.5,1.8-4.2,3.3c-9.5-3.7-15.9-8.9-19.3-15.7c-2.5,6.5-8.6,11.8-18.4,16.1
			c-1.4-1.2-2.6-2.2-3.7-2.9c10-4.1,16.1-9.1,18.1-15.1h-16.1V242.8z M781.9,232.1h-10.5c-0.1,4.6-0.3,8.1-0.6,10.6h11V232.1z"/>
	</g>
</g>
<rect x="99" y="242" class="st2" width="120.4" height="4"/>
<rect x="828.7" y="242" class="st2" width="120.4" height="4"/>
</svg>
